<?xml version="1.0" encoding="UTF-8"?>
<svg id="Capa_2" data-name="Capa 2" xmlns="http://www.w3.org/2000/svg" viewBox="0 0 479.37 54.53">
  <defs>
    <style>
      .cls-1 {
        fill: #2664e6;
      }

      .cls-1, .cls-2 {
        stroke-width: 0px;
      }

      .cls-2 {
        fill: #333;
      }
    </style>
  </defs>
  <g id="Capa_1-2" data-name="Capa 1">
    <g>
      <path class="cls-1" d="M61.05,42.57h-16.01l-3.43-6.29h-22.18l-3.43,6.29H0L22.52,1.01h16.01l22.52,41.56ZM30.55,15.78l-5.62,10.28h11.18l-5.56-10.28Z"/>
      <path class="cls-1" d="M75.65,42.57h-14.88V1.01h14.88v41.56Z"/>
      <path class="cls-1" d="M104.46,11.63c-1.83,0-3.17.1-4.02.31-.84.21-1.4.55-1.69,1.04-.28.49-.42,1.27-.42,2.36v.56h6.12v9.83h-6.12v16.85h-14.88v-16.85h-5.84v-9.83h5.84v-4.38c0-4.46,1.73-7.49,5.19-9.1,3.46-1.61,7.39-2.41,11.77-2.41,1.5,0,2.85.08,4.04.22v11.4Z"/>
      <path class="cls-1" d="M121.19,17.47c3.14-3.44,8.01-5.5,14.6-6.18v10.73h-7.86c-2.1,0-3.73.82-4.89,2.47-1.16,1.65-1.74,3.78-1.74,6.4v11.68h-14.88V11.96h13.7l1.07,5.5Z"/>
      <path class="cls-1" d="M181.34,28.81h-29.2c.26,2.13,1.02,3.86,2.27,5.17,1.25,1.31,2.97,1.97,5.14,1.97,1.72,0,3.31-.39,4.77-1.18,1.46-.79,2.19-2.3,2.19-4.55h14.83c0,4.79-1.88,8.24-5.64,10.33-3.76,2.1-9.15,3.14-16.15,3.14-4.27,0-8.12-.69-11.57-2.08-3.44-1.38-6.15-3.34-8.11-5.87-1.97-2.53-2.95-5.42-2.95-8.68s.99-6.21,2.98-8.73c1.98-2.53,4.7-4.47,8.14-5.84,3.44-1.37,7.28-2.05,11.51-2.05s8.1.67,11.37,2.02c3.28,1.35,5.82,3.25,7.64,5.7,1.82,2.45,2.74,5.33,2.78,8.62v2.02ZM154.58,19.29c-1.1.92-1.84,2.24-2.22,3.96h13.87c-.3-1.72-.96-3.04-1.99-3.96-1.03-.92-2.59-1.38-4.69-1.38-2.21,0-3.87.46-4.97,1.38Z"/>
      <path class="cls-1" d="M211.61,1.01h14.88v41.5h-13.82l-.67-3.76c-3.11,3.15-8.03,4.62-14.77,4.44-2.88,0-5.44-.71-7.67-2.13-2.23-1.42-3.98-3.37-5.25-5.84-1.27-2.47-1.93-5.24-1.97-8.31v-.39c.08-2.66.75-5.19,2.02-7.58,1.27-2.4,3.03-4.33,5.28-5.81,2.25-1.48,4.77-2.22,7.58-2.22,6.44,0,11.23,1.4,14.38,4.21V1.01ZM209.58,32.6c1.35-1.44,2.02-3.19,2.02-5.25v-.17c0-2.47-.65-4.38-1.94-5.73-1.29-1.35-2.99-2.02-5.08-2.02-2.32,0-4.12.7-5.39,2.11-1.27,1.4-1.93,3.15-1.97,5.25.04,2.43.68,4.37,1.94,5.81,1.25,1.44,3.06,2.16,5.42,2.16,1.98,0,3.65-.72,5-2.16Z"/>
      <path class="cls-2" d="M230.7,28.98c-.56-.56-.84-1.25-.84-2.08s.28-1.52.84-2.08c.56-.56,1.25-.84,2.08-.84s1.52.28,2.08.84.84,1.25.84,2.08-.28,1.52-.84,2.08-1.25.84-2.08.84-1.52-.28-2.08-.84Z"/>
      <path class="cls-2" d="M267.76,1.01h14.88v41.5h-13.82l-.67-3.76c-3.11,3.15-8.03,4.62-14.77,4.44-2.88,0-5.44-.71-7.67-2.13-2.23-1.42-3.98-3.37-5.25-5.84-1.27-2.47-1.93-5.24-1.97-8.31v-.39c.08-2.66.75-5.19,2.02-7.58,1.27-2.4,3.03-4.33,5.28-5.81,2.25-1.48,4.77-2.22,7.58-2.22,6.44,0,11.23,1.4,14.38,4.21V1.01ZM265.74,32.6c1.35-1.44,2.02-3.19,2.02-5.25v-.17c0-2.47-.65-4.38-1.94-5.73-1.29-1.35-2.99-2.02-5.08-2.02-2.32,0-4.12.7-5.39,2.11-1.27,1.4-1.93,3.15-1.97,5.25.04,2.43.68,4.37,1.94,5.81,1.25,1.44,3.06,2.16,5.42,2.16,1.98,0,3.65-.72,5-2.16Z"/>
      <path class="cls-2" d="M328.47,28.81h-29.2c.26,2.13,1.02,3.86,2.27,5.17,1.25,1.31,2.97,1.97,5.14,1.97,1.72,0,3.31-.39,4.77-1.18,1.46-.79,2.19-2.3,2.19-4.55h14.83c0,4.79-1.88,8.24-5.64,10.33-3.76,2.1-9.15,3.14-16.15,3.14-4.27,0-8.12-.69-11.57-2.08-3.45-1.38-6.15-3.34-8.11-5.87-1.97-2.53-2.95-5.42-2.95-8.68s.99-6.21,2.98-8.73c1.98-2.53,4.7-4.47,8.14-5.84,3.44-1.37,7.28-2.05,11.51-2.05s8.1.67,11.37,2.02c3.28,1.35,5.82,3.25,7.64,5.7,1.82,2.45,2.74,5.33,2.78,8.62v2.02ZM301.71,19.29c-1.1.92-1.84,2.24-2.22,3.96h13.87c-.3-1.72-.96-3.04-1.99-3.96-1.03-.92-2.59-1.38-4.69-1.38-2.21,0-3.87.46-4.97,1.38Z"/>
      <path class="cls-2" d="M354.08,24.15l3.54-.06c4.46,0,8.08.57,10.87,1.71,2.79,1.14,4.18,3.4,4.18,6.77,0,4.42-2.15,7.4-6.46,8.96-4.31,1.55-9.15,2.33-14.55,2.33s-10.4-.78-14.91-2.33c-4.51-1.55-6.77-4.54-6.77-8.96h15.05c0,1.68.62,2.74,1.85,3.17,1.23.43,2.83.65,4.77.65,4.12,0,6.18-1.22,6.18-3.65,0-1.05-.61-1.72-1.82-2.02-1.22-.3-2.74-.45-4.58-.45l-4.38.06c-4.98,0-9.07-.58-12.27-1.74-3.2-1.16-4.8-3.57-4.8-7.24,0-4.38,2.18-7.24,6.54-8.59,4.36-1.35,9.41-2.02,15.13-2.02,5.39,0,10.24.77,14.55,2.3,4.3,1.54,6.46,4.51,6.46,8.93h-14.83c0-1.16-.6-2.04-1.8-2.64-1.2-.6-2.66-.92-4.38-.95-1.83,0-3.4.22-4.69.67-1.29.45-1.94,1.16-1.94,2.13,0,1.91,2.11,2.92,6.35,3.03,1.16,0,2.06-.02,2.7-.06Z"/>
      <path class="cls-2" d="M388.96,10.33h-14.88V1.01h14.88v9.32ZM388.96,11.96h-14.88v30.61h14.88V11.96Z"/>
      <path class="cls-2" d="M434.5,11.96v30.61c-.15,2.96-1.4,5.33-3.76,7.1-2.36,1.78-5.12,3.03-8.28,3.76-3.16.73-6.15,1.09-8.96,1.09-4.16,0-7.64-.14-10.45-.42-2.81-.28-5.35-1.14-7.64-2.58-2.28-1.44-3.43-3.7-3.43-6.77h15.05c0,.97.38,1.67,1.15,2.08.77.41,1.52.65,2.25.7.73.06,1.75.08,3.06.08,1.5,0,2.89-.42,4.18-1.26,1.29-.84,1.94-2.29,1.94-4.35v-2.64c-3.14,2.81-7.94,4.21-14.38,4.21-2.81,0-5.34-.74-7.58-2.22-2.25-1.48-4.01-3.42-5.28-5.81-1.27-2.4-1.95-4.92-2.02-7.58v-.39c.04-3.07.69-5.84,1.97-8.31,1.27-2.47,3.02-4.42,5.25-5.84,2.23-1.42,4.78-2.13,7.67-2.13,6.74-.19,11.66,1.29,14.77,4.44l.67-3.76h13.82ZM417.68,33.02c1.29-1.35,1.94-3.26,1.94-5.73v-.17c0-2.06-.67-3.81-2.02-5.25-1.35-1.44-3.01-2.16-5-2.16-2.36,0-4.17.72-5.42,2.16-1.25,1.44-1.9,3.38-1.94,5.81.04,2.1.69,3.85,1.97,5.25,1.27,1.4,3.07,2.11,5.39,2.11,2.1,0,3.79-.67,5.08-2.02Z"/>
      <path class="cls-2" d="M475.47,15.42c2.6,2.98,3.9,7.82,3.9,14.52v12.64h-14.88v-12.47c0-2.4-.1-4.26-.31-5.59-.21-1.33-.74-2.43-1.6-3.31-.86-.88-2.25-1.32-4.16-1.32-2.06,0-3.57.4-4.52,1.21-.95.81-1.54,1.87-1.77,3.2-.23,1.33-.34,3.21-.34,5.64v12.64h-14.88V11.96h14.88v3.65c2.81-3.11,7.04-4.66,12.69-4.66,4.72,0,8.38,1.49,10.98,4.46Z"/>
    </g>
  </g>
</svg>